inDegrees=no
num_controls=7
num_derivatives=13
num_iterations=77
num_multipliers=7
num_parameters=0
num_slacks=7
num_states=26
objective=0.452986
objective_accelerations=0.048779
objective_balance=0.001029
objective_effort=0.037820
objective_height=0.359735
objective_ligament=0.005624
solver_duration=872.311292
status=Solve_Succeeded
success=true
DataType=double
version=3
OpenSimVersion=4.5
endheader
time	/jointset/ground_pelvis/pelvis_tilt/value	/jointset/ground_pelvis/pelvis_tx/value	/jointset/ground_pelvis/pelvis_ty/value	/jointset/hip_r/hip_flexion_r/value	/jointset/hip_r/hip_adduction_r/value	/jointset/hip_r/hip_rotation_r/value	/jointset/back/lumbar_extension/value	/jointset/patellofemoral_r/patellar_flexion_r/value	/jointset/knee_r/knee_flexion_r/value	/jointset/knee_r/knee_adduction_r/value	/jointset/knee_r/knee_rotation_r/value	/jointset/ankle_r/ankle_angle_r/value	/jointset/subtalar_r/subtalar_angle_r/value	/jointset/ground_pelvis/pelvis_tilt/speed	/jointset/ground_pelvis/pelvis_tx/speed	/jointset/ground_pelvis/pelvis_ty/speed	/jointset/hip_r/hip_flexion_r/speed	/jointset/hip_r/hip_adduction_r/speed	/jointset/hip_r/hip_rotation_r/speed	/jointset/back/lumbar_extension/speed	/jointset/patellofemoral_r/patellar_flexion_r/speed	/jointset/knee_r/knee_flexion_r/speed	/jointset/knee_r/knee_adduction_r/speed	/jointset/knee_r/knee_rotation_r/speed	/jointset/ankle_r/ankle_angle_r/speed	/jointset/subtalar_r/subtalar_angle_r/speed	/forceset/tau_hip_flexion_r	/forceset/tau_hip_adduction_r	/forceset/tau_hip_rotation_r	/forceset/tau_knee_flexion_r	/forceset/tau_ankle_angle_r	/forceset/tau_subtalar_angle_r	/forceset/tau_lumbar_extension	lambda_cid13_p0	lambda_cid14_p0	lambda_cid14_p1	lambda_cid14_p2	lambda_cid14_p3	lambda_cid14_p4	lambda_cid14_p5	/jointset/ground_pelvis/pelvis_tilt/accel	/jointset/ground_pelvis/pelvis_tx/accel	/jointset/ground_pelvis/pelvis_ty/accel	/jointset/hip_r/hip_flexion_r/accel	/jointset/hip_r/hip_adduction_r/accel	/jointset/hip_r/hip_rotation_r/accel	/jointset/back/lumbar_extension/accel	/jointset/patellofemoral_r/patellar_flexion_r/accel	/jointset/knee_r/knee_flexion_r/accel	/jointset/knee_r/knee_adduction_r/accel	/jointset/knee_r/knee_rotation_r/accel	/jointset/ankle_r/ankle_angle_r/accel	/jointset/subtalar_r/subtalar_angle_r/accel	gamma_cid13_p0	gamma_cid14_p0	gamma_cid14_p1	gamma_cid14_p2	gamma_cid14_p3	gamma_cid14_p4	gamma_cid14_p5
1	-0.2284007572829781	-0.01438266459781017	0.630356005799715	1.436702973393906	-0.2387711383873709	-0.08365630830112922	-0.7853934402675542	1.524909628590799	1.524909628590948	-0.1745136432399544	0.1739360990946555	0.4362551376611151	0.1748221411227493	0.06542605787617381	0.005143371806880593	0.01581138071536411	-0.09801055525235787	-0.0008547519617026066	-0.001822208877749979	0.0006096527717536749	-0.02008188929060834	-0.02008188929060668	0.00488837475218996	-0.0003435322422967183	0.01228716287908922	0.004739369462493365	-0.3344081428125806	0.04055318171744449	0.009681440284599925	-0.4685885958034208	-0.01304642932135605	-0.0004508752165714899	0.359891108158723	-0.04085736669121751	-56.79469385988128	-15.19830367742343	8.622581705811289	8.228424447373826	-772.9757191363374	60.14936970542372	1.30515946402677	0.1521999942008682	1.876178775774227	-5.612014098200078	0.274280765673072	-0.7371386562629149	0.05227147001932399	-5.148808508136112	-5.148808508136609	0.5446640611491298	-0.04685512079754654	-0.9811212705024057	0.03221021210254232	1.035246274509859e-09	1.645524407025478e-09	1.064918823931802e-08	7.435422803199345e-09	-1.7332044668081e-09	-4.686224638163349e-09	1.758575548955126e-08
1.01	-0.2276823504775122	-0.01432352039278556	0.6306077023746186	1.435443635932693	-0.2387660820538706	-0.08370852992067726	-0.7853824817544224	1.524451980638746	1.524451980638838	-0.1744346173570044	0.1739300981567124	0.4363290300923459	0.1748709046990718	0.07820912511337959	0.006698817294687754	0.03451779631986057	-0.1538083629015836	0.001855548126244189	-0.008575942429118336	0.00173295169625092	-0.07142840222609249	-0.07142840222609803	0.01097306986298758	-0.0008437880756596785	0.002502416531881886	0.004997774319824024	-0.3347586996159798	0.04057562497886552	0.009737902015367221	-0.4684710815340022	-0.01322299984571499	-0.0004407271484325209	0.3605052011455412	-0.04085662439304718	-56.86187376786705	-15.20278389690734	8.620012003749705	8.094685889923941	-773.2436777503636	60.14520555631437	1.257955295624283	0.159217998728502	1.86635013212619	-5.556376464114373	0.2678390119517274	-0.637562858779956	0.1649943749295843	-5.124678880680487	-5.124678880681275	0.6488126086001181	-0.04966995934315066	-0.9754874324543449	0.02033043382002808	5.102764398236589e-09	8.148779210637041e-09	3.84530537885761e-08	3.800329742760084e-08	-5.176999851796769e-09	-1.05847432025903e-08	7.544000180505643e-08
1.02	-0.2268374980112595	-0.01424842149835124	0.631046158541435	1.433627777921832	-0.2387342358431684	-0.08382690330658722	-0.7853557631976068	1.523481446318453	1.523481446318474	-0.1742930564483579	0.1739194828314858	0.4363054078378661	0.1749217872862223	0.09071519003285677	0.008334309688822797	0.05316329909789416	-0.209314665184036	0.00450322347804095	-0.01505256214873331	0.003761661471319044	-0.1226591629386134	-0.1226591629386247	0.01739537987598081	-0.001266409698522785	-0.007215774440299595	0.005163171628025669	-0.3351092564193383	0.04059806824028585	0.009794363746037366	-0.4683535672645933	-0.01339957037008192	-0.0004305790802966527	0.3611192941323969	-0.04086319145029928	-56.93676329729431	-15.20462308818191	8.612462278577384	7.96255985925893	-773.6353361651949	60.17326241872055	1.249759000480914	0.1682093754666295	1.863996210481661	-5.553713024845543	0.2617558184430308	-0.6817158899123938	0.2333536401327184	-5.125658063543373	-5.125658063543587	0.6121870415880836	-0.03132827869758083	-0.9678101954968569	0.0136087022768729	1.11504311271935e-08	1.704693164066069e-08	7.098716827463871e-08	8.131399321920618e-08	-9.611081666321633e-09	-1.824861553942569e-08	1.520121513191735e-07
1.03	-0.2258689705184376	-0.01415656869443359	0.6316707447181632	1.431258370912289	-0.2386762314978441	-0.08400870330825889	-0.7853042589426336	1.521999084940914	1.521999084940937	-0.1740855845235067	0.1739050876296468	0.4361847714840899	0.174973761520621	0.1029417767728065	0.01004949938866845	0.07174150168062805	-0.2645101667302326	0.00708812626785194	-0.02126830341460581	0.006690176538566081	-0.1738038284254947	-0.1738038284255235	0.02415063190765415	-0.001597560436519529	-0.0169166086003238	0.00520947903414439	-0.3352465968463409	0.04061056124851007	0.009913378151928024	-0.4680651410114362	-0.01355701445283578	-0.0004237374005971031	0.3615869021359836	-0.04088142159341828	-56.99299737344745	-15.20088221794155	8.599740372972946	7.856888610963803	-773.8186416706702	60.19418453034666	1.201834043044476	0.1751581736134034	1.852861864457025	-5.493978241999864	0.2554456729168481	-0.5856239380890316	0.3452484909320235	-5.107481650028982	-5.107481650031459	0.7149360234417953	-0.03171379035966455	-0.971986453692385	-0.003156598179489351	1.721830345416297e-08	2.596952180156611e-08	1.035695506069953e-07	1.24754717798232e-07	-1.40552684444132e-08	-2.593050169026525e-08	2.287752998455214e-07
1.04	-0.2247796320517574	-0.01404716711224354	0.6324807388371767	1.428338706982787	-0.2385926604918872	-0.08425148486121956	-0.7852189399267688	1.520005554736753	1.520005554736766	-0.1738090117303969	0.1738878398566341	0.4359669735031562	0.1750255391574894	0.1148773848044538	0.0118440653433001	0.09024488755487028	-0.319366049176158	0.009616555604324728	-0.0272488724070481	0.01052461364226106	-0.2248929282631155	-0.2248929282631602	0.03121555351871467	-0.001836923934874541	-0.0266480998578336	0.005123852121910952	-0.3353839372733424	0.04062305425675275	0.01003239255762558	-0.4677767147582973	-0.01371445853558367	-0.0004168957208554072	0.3620545101395731	-0.04090692110396793	-57.05686753426411	-15.19420635412308	8.581670512346987	7.751427238315902	-774.1265660603682	60.24853413096771	1.19156325882037	0.1840846264239227	1.849032868783335	-5.485789204791367	0.2504611277753727	-0.6346814352264247	0.4145380474220133	-5.11454493369123	-5.114544933691123	0.6741209574654499	-0.01297083076922873	-0.9739416149937897	-0.01277816139349979	2.289153936248848e-08	3.470609956974807e-08	1.3317769428453e-07	1.665692479546989e-07	-1.906450085654842e-08	-3.221806741307927e-08	2.997513275484042e-07
1.05	-0.2235723096249778	-0.01391940213324853	0.6334753210726118	1.424872258584615	-0.2384841044927216	-0.08455285672974637	-0.7850907342609859	1.517501530185779	1.517501530185822	-0.1734602135611527	0.1738686737104276	0.435651658508425	0.1750757408089959	0.1265441236137579	0.01372425219707239	0.1086517087957822	-0.373856807575791	0.01208519912360097	-0.03298143089255542	0.01527208714873526	-0.2758909490569011	-0.2758909490569761	0.03859700989085101	-0.001983899904497683	-0.03642457326061819	0.004891825266745653	-0.3353403721863337	0.04066346658357369	0.010195923458699	-0.4671107060961545	-0.0139287880949427	-0.0004225109404724689	0.3623861066024635	-0.04093897778014482	-57.11636178450114	-15.18951196574774	8.560875856765769	7.655009851547398	-774.0767217823945	60.23775152638631	1.147791250961123	0.1922791071327557	1.833521385817124	-5.4206875531414	0.2436759423815013	-0.5359161815035401	0.5281871467470242	-5.089281488656361	-5.089281488660958	0.7780925659487935	-0.01364384081552292	-0.9809502807815461	-0.03206264452081824	2.855244288273137e-08	4.343686445065742e-08	1.626928930041015e-07	2.083329595354608e-07	-2.40913909447475e-08	-3.846206062251749e-08	3.705465077255538e-07
1.06	-0.2222496073983101	-0.0137723766072601	0.6346533744472704	1.420862908923321	-0.2383511400626872	-0.08491022880838579	-0.7849103868312265	1.514488155259581	1.514488155259647	-0.1730360139103861	0.1738484212323784	0.4352382887640798	0.1751228926525624	0.1379533447820883	0.01569617474198572	0.1269391153995716	-0.4279463017991126	0.01449824177798275	-0.03844891442968499	0.02095296643468417	-0.3267630033080531	-0.3267630033081576	0.04629584981742601	-0.002054190304387807	-0.0462590497778323	0.004513890533870964	-0.3352968070993578	0.04070387891040458	0.01035945435962409	-0.4664446974340271	-0.01414311765429293	-0.0004281261600630125	0.3627177030653244	-0.0409782925759978	-57.18347989687008	-15.18157052965149	8.534329500775517	7.557752827648908	-774.1533414621484	60.26169366972472	1.140059730625601	0.2024317646521778	1.825149941358811	-5.405536369529118	0.2393409547964712	-0.581666445550917	0.6012192033167967	-5.089351625164499	-5.08935162516421	0.7375976683531437	0.002366283177383065	-0.9855422378796074	-0.04195973693535277	3.421551604095948e-08	5.18192176274068e-08	1.904336796600816e-07	2.500011154043972e-07	-2.852827708740501e-08	-4.464408282128319e-08	4.383714140555425e-07
1.07	-0.2208140355381398	-0.0136051553918408	0.6360136418015189	1.416314740315807	-0.2381943336348167	-0.08532106286197774	-0.7846686471502392	1.51096676202528	1.510966762025344	-0.1725333615338414	0.1738278644135614	0.4347262250251133	0.1751654879123606	0.1491217064719998	0.01776512877739283	0.1450879560201689	-0.4816109627271223	0.01685450504480047	-0.04368071320002447	0.02754560555287434	-0.377487360281243	-0.377487360281351	0.05427701156330896	-0.00204788679472425	-0.05616891620027882	0.003979563628191369	-0.3349411620743955	0.04070713664022685	0.01057564309338392	-0.4655155127175238	-0.01425951859506889	-0.0004377788238299579	0.3627985165030959	-0.04102500336854664	-57.1932399135605	-15.1613783775303	8.501305777112234	7.436780859182596	-773.8444647121091	60.26425757623628	1.09933811031094	0.211679639351295	1.80578095599114	-5.33545111739992	0.2325256272683412	-0.4883351945235102	0.7108816341940304	-5.059743298540722	-5.05974329854141	0.8347258138235635	0.001233532671061947	-0.995989881025537	-0.06294003276422959	3.987870460546341e-08	6.018303826670085e-08	2.180800826956578e-07	2.916641885227046e-07	-3.293378004146988e-08	-5.082280868969397e-08	5.060383270957885e-07
1.08	-0.2192679573166438	-0.01341673415279424	0.6375546035286894	1.411232221066413	-0.2380142132513488	-0.08578309462362481	-0.7843564620044384	1.506938972108217	1.506938972108281	-0.1719496274625993	0.1738076648594038	0.4341146064145969	0.1752019857300263	0.1600546170473921	0.01993617946743886	0.1630779899840047	-0.5348164301736545	0.01916103289737348	-0.04868845604028339	0.03504205939602142	-0.4280423398602134	-0.428042339860325	0.062512188753898	-0.001982737372652319	-0.06617002408665967	0.003294402107314257	-0.3345855170494621	0.04071039437005054	0.01079183182707463	-0.4645863280010281	-0.01437591953583923	-0.0004474314875897878	0.3628793299408409	-0.04107896683398838	-57.21064843458763	-15.13769048983582	8.462201717411833	7.314132114613479	-773.6642883885586	60.30262597731484	1.092969507721741	0.2228510955799962	1.793388610006518	-5.313697673233658	0.2293938719475195	-0.5368552595348377	0.7819821483080777	-5.055476146320608	-5.055476146320302	0.7884007572943378	0.01413546565906842	-1.003790530666414	-0.07212665997484195	4.472107995573021e-08	6.699258617460334e-08	2.405303816412306e-07	3.283527702998783e-07	-3.604744553177904e-08	-5.591137175469012e-08	5.61356628150826e-07
